<svg xmlns="http://www.w3.org/2000/svg" viewBox="0 0 1260 540" width="1260" height="540" role="img"><title>A climbing logbook, calendar, shoes and chalk bag laid out on a crash pad</title><g stroke-linejoin="round" stroke-linecap="round"><rect x="0" y="0" width="1260" height="540" fill="#F2DFC0"/><rect x="120" y="430" width="1020" height="74" rx="18" fill="#2E3230" stroke="#171B16" stroke-width="3.5"/><rect x="120" y="210" width="1020" height="250" rx="22" fill="#40634B" stroke="#171B16" stroke-width="3.5"/><path d="M150 236L1110 236" fill="none" stroke="#2F4B39" stroke-width="3" stroke-linecap="round"/><path d="M146 486L1114 486" fill="none" stroke="#FAE9C7" stroke-width="2.2" stroke-linecap="round" stroke-dasharray="10 9"/><rect x="196" y="238" width="70" height="82" rx="12" fill="#FAE9C7" stroke="#171B16" stroke-width="3.5"/><rect x="196" y="262" width="70" height="18" fill="#2F4B39"/><rect x="196" y="238" width="70" height="82" rx="12" fill="none" stroke="#171B16" stroke-width="3.5"/><path d="M266 256C292 256 292 302 266 302" fill="none" stroke="#171B16" stroke-width="3.5"/><path d="M214 226C206 214 222 206 214 192" fill="none" stroke-width="3.5" stroke="#BD823E"/><path d="M236 226C228 214 244 206 236 192" fill="none" stroke-width="3.5" stroke="#BD823E"/><rect x="300" y="226" width="158" height="150" rx="10" fill="#FFFCF4" stroke="#171B16" stroke-width="3.5"/><rect x="300" y="226" width="158" height="30" rx="10" fill="#40634B" stroke="#171B16" stroke-width="3.5"/><rect x="301.7" y="246" width="154.6" height="10" fill="#40634B"/><path d="M300 256L458 256" fill="none" stroke="#171B16" stroke-width="3.5" stroke-linecap="round"/><circle cx="318" cy="272" r="2.6" fill="#EBC596"/><circle cx="338.5" cy="272" r="2.6" fill="#EBC596"/><circle cx="359" cy="272" r="2.6" fill="#EBC596"/><circle cx="379.5" cy="272" r="7.5" fill="#DDA23A" stroke="#171B16" stroke-width="2.4"/><circle cx="400" cy="272" r="2.6" fill="#EBC596"/><circle cx="420.5" cy="272" r="2.6" fill="#EBC596"/><circle cx="441" cy="272" r="2.6" fill="#EBC596"/><circle cx="318" cy="296" r="2.6" fill="#EBC596"/><circle cx="338.5" cy="296" r="7.5" fill="#DDA23A" stroke="#171B16" stroke-width="2.4"/><circle cx="359" cy="296" r="7.5" fill="#DDA23A" stroke="#171B16" stroke-width="2.4"/><circle cx="379.5" cy="296" r="2.6" fill="#EBC596"/><circle cx="400" cy="296" r="2.6" fill="#EBC596"/><circle cx="420.5" cy="296" r="2.6" fill="#EBC596"/><circle cx="441" cy="296" r="2.6" fill="#EBC596"/><circle cx="318" cy="320" r="2.6" fill="#EBC596"/><circle cx="338.5" cy="320" r="7.5" fill="#DDA23A" stroke="#171B16" stroke-width="2.4"/><circle cx="359" cy="320" r="2.6" fill="#EBC596"/><circle cx="379.5" cy="320" r="2.6" fill="#EBC596"/><circle cx="400" cy="320" r="2.6" fill="#EBC596"/><circle cx="420.5" cy="320" r="7.5" fill="#DDA23A" stroke="#171B16" stroke-width="2.4"/><circle cx="441" cy="320" r="2.6" fill="#EBC596"/><circle cx="318" cy="344" r="2.6" fill="#EBC596"/><circle cx="338.5" cy="344" r="2.6" fill="#EBC596"/><circle cx="359" cy="344" r="2.6" fill="#EBC596"/><circle cx="379.5" cy="344" r="7.5" fill="#DDA23A" stroke="#171B16" stroke-width="2.4"/><circle cx="400" cy="344" r="2.6" fill="#EBC596"/><circle cx="420.5" cy="344" r="2.6" fill="#EBC596"/><circle cx="441" cy="344" r="2.6" fill="#EBC596"/><rect x="486" y="168" width="352" height="222" rx="14" fill="#2F4B39" stroke="#171B16" stroke-width="3.5"/><path d="M496 180L662 186L662 376L496 370Z" fill="#FFFCF4" stroke="#171B16" stroke-width="3.5"/><path d="M828 180L662 186L662 376L828 370Z" fill="#FFFCF4" stroke="#171B16" stroke-width="3.5"/><path d="M662 186L662 376" fill="none" stroke="#BD823E" stroke-width="3" stroke-linecap="round"/><path d="M512 213L646 215" fill="none" stroke="#EBC596" stroke-width="2" stroke-linecap="round"/><path d="M678 215L812 213" fill="none" stroke="#EBC596" stroke-width="2" stroke-linecap="round"/><path d="M512 235L646 237" fill="none" stroke="#EBC596" stroke-width="2" stroke-linecap="round"/><path d="M678 237L812 235" fill="none" stroke="#EBC596" stroke-width="2" stroke-linecap="round"/><path d="M512 257L646 259" fill="none" stroke="#EBC596" stroke-width="2" stroke-linecap="round"/><path d="M678 259L812 257" fill="none" stroke="#EBC596" stroke-width="2" stroke-linecap="round"/><path d="M512 279L646 281" fill="none" stroke="#EBC596" stroke-width="2" stroke-linecap="round"/><path d="M678 281L812 279" fill="none" stroke="#EBC596" stroke-width="2" stroke-linecap="round"/><path d="M512 301L646 303" fill="none" stroke="#EBC596" stroke-width="2" stroke-linecap="round"/><path d="M678 303L812 301" fill="none" stroke="#EBC596" stroke-width="2" stroke-linecap="round"/><path d="M512 323L646 325" fill="none" stroke="#EBC596" stroke-width="2" stroke-linecap="round"/><path d="M678 325L812 323" fill="none" stroke="#EBC596" stroke-width="2" stroke-linecap="round"/><path d="M512 345L646 347" fill="none" stroke="#EBC596" stroke-width="2" stroke-linecap="round"/><path d="M678 347L812 345" fill="none" stroke="#EBC596" stroke-width="2" stroke-linecap="round"/><path d="M514 207Q520.0 212 526 207Q532.0 202 538 207Q544.0 212 550 207Q556.0 202 562 207Q568.0 212 574 207Q580.0 202 586 207Q592.0 212 598 207Q604.0 202 610 207Q616.0 212 622 207" fill="none" stroke="#171B16" stroke-width="2.2" stroke-linecap="round"/><path d="M514 229Q520.0 234 526 229Q532.0 224 538 229Q544.0 234 550 229Q556.0 224 562 229Q568.0 234 574 229Q580.0 224 586 229Q592.0 234 598 229" fill="none" stroke="#171B16" stroke-width="2.2" stroke-linecap="round"/><path d="M514 251Q520.0 256 526 251Q532.0 246 538 251Q544.0 256 550 251Q556.0 246 562 251Q568.0 256 574 251Q580.0 246 586 251Q592.0 256 598 251Q604.0 246 610 251Q616.0 256 622 251Q628.0 246 634 251" fill="none" stroke="#171B16" stroke-width="2.2" stroke-linecap="round"/><path d="M514 273Q520.0 278 526 273Q532.0 268 538 273Q544.0 278 550 273Q556.0 268 562 273Q568.0 278 574 273Q580.0 268 586 273" fill="none" stroke="#171B16" stroke-width="2.2" stroke-linecap="round"/><path d="M680 207Q686.0 212 692 207Q698.0 202 704 207Q710.0 212 716 207Q722.0 202 728 207Q734.0 212 740 207Q746.0 202 752 207Q758.0 212 764 207Q770.0 202 776 207Q782.0 212 788 207" fill="none" stroke="#171B16" stroke-width="2.2" stroke-linecap="round"/><path d="M680 229Q686.0 234 692 229Q698.0 224 704 229Q710.0 234 716 229Q722.0 224 728 229Q734.0 234 740 229Q746.0 224 752 229" fill="none" stroke="#171B16" stroke-width="2.2" stroke-linecap="round"/><g transform="translate(700 330) rotate(-18)"><rect x="0" y="-8" width="150" height="16" rx="3" fill="#DDA23A" stroke="#171B16" stroke-width="3.5"/><path d="M150 -8L176 0L150 8Z" fill="#FAE9C7" stroke="#171B16" stroke-width="3.5"/><path d="M168 -2.8L176 0L168 2.8Z" fill="#171B16"/><rect x="-18" y="-8" width="20" height="16" rx="3" fill="#EBC596" stroke="#171B16" stroke-width="3.5"/></g><g transform="translate(870 300) rotate(0) scale(0.8)"><path d="M0 0C-9 -18 -8 -44 4 -60L54 -50C82 -40 112 -26 150 -13C168 -7 174 2 165 8L10 8C1 8 -3 4 0 0Z" fill="#C08A22" stroke="#171B16" stroke-width="3.5"/><path d="M4 -60L54 -50C42 -42 20 -44 4 -60Z" fill="#754D33" stroke="#171B16" stroke-width="3.5"/><path d="M-3 3L166 3C174 7 170 14 160 14L8 14C-1 14 -5 9 -3 3Z" fill="#754D33" stroke="#171B16" stroke-width="3.5"/><path d="M112 -25C134 -18 156 -11 166 0" fill="none" stroke="#754D33" stroke-width="7"/><path d="M60 -49L88 -39L80 6L52 6Z" fill="#40634B" stroke="#171B16" stroke-width="3.5"/><path d="M2 -58C-12 -70 -4 -84 10 -73" fill="none" stroke="#171B16" stroke-width="3.5"/></g><g transform="translate(884 344) rotate(0) scale(0.8)"><path d="M0 0C-9 -18 -8 -44 4 -60L54 -50C82 -40 112 -26 150 -13C168 -7 174 2 165 8L10 8C1 8 -3 4 0 0Z" fill="#DDA23A" stroke="#171B16" stroke-width="3.5"/><path d="M4 -60L54 -50C42 -42 20 -44 4 -60Z" fill="#754D33" stroke="#171B16" stroke-width="3.5"/><path d="M-3 3L166 3C174 7 170 14 160 14L8 14C-1 14 -5 9 -3 3Z" fill="#754D33" stroke="#171B16" stroke-width="3.5"/><path d="M112 -25C134 -18 156 -11 166 0" fill="none" stroke="#754D33" stroke-width="7"/><path d="M60 -49L88 -39L80 6L52 6Z" fill="#40634B" stroke="#171B16" stroke-width="3.5"/><path d="M2 -58C-12 -70 -4 -84 10 -73" fill="none" stroke="#171B16" stroke-width="3.5"/></g><path d="M1034.8 338.3L1038.5 412.4Q1068 425.7 1097.5 412.4L1101.2 338.3Z" fill="#40634B" stroke="#171B16" stroke-width="3.5"/><path d="M1043.3 391.5Q1068 399.1 1092.7 391.5" fill="none" stroke-width="3.5" stroke="#2F4B39"/><rect x="1030" y="323.1" width="76" height="20.9" rx="10.4" fill="#FAE9C7" stroke="#171B16" stroke-width="3.5"/><path d="M1047.1 326.9Q1058.5 306 1068 309.8Q1081.3 304.1 1090.8 326.9Z" fill="#FFFCF4" stroke="#171B16" stroke-width="3.5"/><circle cx="1018" cy="424" r="5" fill="#FFFCF4"/><circle cx="1030" cy="432" r="3.5" fill="#FFFCF4"/><circle cx="1104" cy="426" r="4" fill="#FFFCF4"/><g transform="translate(332 412) rotate(-4)"><rect x="0" y="-8.5" width="87.4" height="17.1" rx="8.5" fill="#754D33" stroke="#171B16" stroke-width="3.5"/><rect x="83.6" y="-12.3" width="41.8" height="24.7" rx="5.7" fill="#FAE9C7" stroke="#171B16" stroke-width="3.5"/><path d="M91.2 -8.5L91.2 8.5" fill="none" stroke="#EBC596" stroke-width="2" stroke-linecap="round"/><path d="M99.8 -8.5L99.8 8.5" fill="none" stroke="#EBC596" stroke-width="2" stroke-linecap="round"/><path d="M108.3 -8.5L108.3 8.5" fill="none" stroke="#EBC596" stroke-width="2" stroke-linecap="round"/><path d="M116.8 -8.5L116.8 8.5" fill="none" stroke="#EBC596" stroke-width="2" stroke-linecap="round"/></g><circle cx="560" cy="418" r="28" fill="#FFFCF4" stroke="#171B16" stroke-width="3.5"/><circle cx="560" cy="418" r="13" fill="#40634B" stroke="#171B16" stroke-width="3.5"/></g></svg>
